<svg xmlns="http://www.w3.org/2000/svg" width="561" height="469" viewBox="0 0 561 469" fill="none"><path d="M45.8433 417.263C45.8433 417.263 52.6833 402.345 44.8641 387.628C37.0449 372.911 34.7841 369.441 39.7665 366.431C44.7489 363.421 46.9665 378.196 46.9665 378.196C49.4307 371.517 49.6881 364.224 47.7009 357.388C44.2305 346.746 42.0561 329.409 46.7937 327.551C51.5313 325.693 47.6865 349.151 51.8049 357.186C53.8936 351.562 55.244 345.691 55.8225 339.719C56.3841 331.165 55.5057 317.514 59.2353 314.015C62.9649 310.516 65.3697 312.935 61.6977 331.799C59.4908 343.076 58.2717 354.524 58.0545 366.013C58.0545 366.013 66.1761 341.26 71.6193 340.54C77.0625 339.82 77.0625 347.826 72.3969 354.781C67.7313 361.737 58.7457 374.193 57.2625 380.601C57.2625 380.601 66.1761 361.967 74.1825 367.641C82.1889 373.314 67.2129 384.59 60.5313 388.665C53.8497 392.74 49.2129 418.199 49.2129 418.199L45.8433 417.263Z" fill="#4679BD"></path><path opacity="0.2" d="M45.8433 417.263C45.8433 417.263 52.6833 402.345 44.8641 387.628C37.0449 372.911 34.7841 369.441 39.7665 366.431C44.7489 363.421 46.9665 378.196 46.9665 378.196C49.4307 371.517 49.6881 364.224 47.7009 357.388C44.2305 346.746 42.0561 329.409 46.7937 327.551C51.5313 325.693 47.6865 349.151 51.8049 357.186C53.8936 351.562 55.244 345.691 55.8225 339.719C56.3841 331.165 55.5057 317.514 59.2353 314.015C62.9649 310.516 65.3697 312.935 61.6977 331.799C59.4908 343.076 58.2717 354.524 58.0545 366.013C58.0545 366.013 66.1761 341.26 71.6193 340.54C77.0625 339.82 77.0625 347.826 72.3969 354.781C67.7313 361.737 58.7457 374.193 57.2625 380.601C57.2625 380.601 66.1761 361.967 74.1825 367.641C82.1889 373.314 67.2129 384.59 60.5313 388.665C53.8497 392.74 49.2129 418.199 49.2129 418.199L45.8433 417.263Z" fill="black"></path><path d="M51.2435 423.441C51.2435 423.441 44.5763 408.422 52.5683 393.82C60.5603 379.218 62.8643 375.791 57.9251 372.71C52.9859 369.628 50.5091 384.374 50.5091 384.374C48.1226 377.658 47.956 370.354 50.0339 363.537C53.6339 352.953 56.0099 335.644 51.3011 333.714C46.5923 331.785 50.1347 355.314 45.9299 363.278C43.9067 357.625 42.624 351.735 42.1139 345.753C41.6531 337.199 42.7043 323.562 39.0035 320.006C35.3027 316.449 32.8835 318.839 36.3395 337.746C38.4089 349.05 39.4881 360.513 39.5651 372.004C39.5651 372.004 31.7459 347.135 26.3171 346.343C20.8883 345.551 20.7875 353.543 25.3667 360.57C29.9459 367.598 38.7875 380.169 40.1843 386.606C40.1843 386.606 31.5443 367.886 23.4227 373.444C15.3011 379.002 30.1907 390.494 36.8147 394.67C43.4387 398.846 47.7875 424.377 47.7875 424.377L51.2435 423.441Z" fill="#4679BD"></path><path d="M20.5137 412.727H75.5361L71.0865 452.111H24.9777L20.5137 412.727Z" fill="#263238"></path><path d="M537.618 117.455H496.247C494.574 117.455 492.918 117.785 491.373 118.425C489.827 119.066 488.423 120.005 487.241 121.188C486.059 122.372 485.121 123.777 484.483 125.323C483.844 126.869 483.516 128.526 483.518 130.199V144.224L470.716 148.199L483.518 152.173V166.199C483.516 167.872 483.844 169.529 484.483 171.075C485.121 172.621 486.059 174.026 487.241 175.209C488.423 176.393 489.827 177.332 491.373 177.973C492.918 178.613 494.574 178.943 496.247 178.943H537.618C540.998 178.943 544.24 177.6 546.63 175.21C549.02 172.82 550.362 169.579 550.362 166.199V130.199C550.362 126.819 549.02 123.577 546.63 121.188C544.24 118.798 540.998 117.455 537.618 117.455Z" fill="#4679BD"></path><path opacity="0.7" d="M537.618 117.455H496.247C494.574 117.455 492.918 117.785 491.373 118.425C489.827 119.066 488.423 120.005 487.241 121.188C486.059 122.372 485.121 123.777 484.483 125.323C483.844 126.869 483.516 128.526 483.518 130.199V144.224L470.716 148.199L483.518 152.173V166.199C483.516 167.872 483.844 169.529 484.483 171.075C485.121 172.621 486.059 174.026 487.241 175.209C488.423 176.393 489.827 177.332 491.373 177.973C492.918 178.613 494.574 178.943 496.247 178.943H537.618C540.998 178.943 544.24 177.6 546.63 175.21C549.02 172.82 550.362 169.579 550.362 166.199V130.199C550.362 126.819 549.02 123.577 546.63 121.188C544.24 118.798 540.998 117.455 537.618 117.455Z" fill="white"></path><path d="M531.61 162.722C539.629 154.703 539.629 141.701 531.61 133.682C523.591 125.662 510.589 125.662 502.57 133.682C494.551 141.701 494.551 154.703 502.57 162.722C510.589 170.741 523.591 170.741 531.61 162.722Z" fill="#4679BD"></path><path d="M514.939 157.372C514.665 157.372 514.394 157.313 514.146 157.199C513.897 157.085 513.676 156.917 513.499 156.709L505.435 147.22C505.11 146.838 504.95 146.342 504.991 145.843C505.031 145.343 505.269 144.88 505.651 144.556C506.032 144.231 506.528 144.071 507.027 144.112C507.527 144.152 507.99 144.39 508.315 144.772L514.939 152.562L525.868 139.688C526.029 139.499 526.225 139.344 526.446 139.231C526.667 139.117 526.908 139.049 527.155 139.029C527.403 139.009 527.652 139.037 527.888 139.114C528.124 139.19 528.343 139.312 528.532 139.472C528.721 139.633 528.877 139.83 528.99 140.05C529.103 140.271 529.172 140.512 529.192 140.76C529.212 141.007 529.183 141.256 529.107 141.492C529.031 141.728 528.909 141.947 528.748 142.136L516.393 156.709C516.212 156.918 515.989 157.085 515.738 157.199C515.487 157.314 515.214 157.372 514.939 157.372Z" fill="white"></path><path d="M162.787 25.4536H121.43C118.05 25.4536 114.808 26.7962 112.418 29.1862C110.028 31.5762 108.686 34.8176 108.686 38.1976V74.1972C108.686 77.5772 110.028 80.8192 112.418 83.2092C114.808 85.5992 118.05 86.9412 121.43 86.9412H133.497V99.7432L142.137 86.9412H162.859C166.238 86.9412 169.48 85.5992 171.87 83.2092C174.26 80.8192 175.603 77.5772 175.603 74.1972V38.1976C175.603 36.5179 175.271 34.8548 174.626 33.304C173.981 31.7531 173.036 30.345 171.844 29.1606C170.653 27.9763 169.24 27.0391 167.686 26.4029C166.131 25.7667 164.466 25.4441 162.787 25.4536Z" fill="#4679BD"></path><path opacity="0.7" d="M162.787 25.4536H121.43C118.05 25.4536 114.808 26.7962 112.418 29.1862C110.028 31.5762 108.686 34.8176 108.686 38.1976V74.1972C108.686 77.5772 110.028 80.8192 112.418 83.2092C114.808 85.5992 118.05 86.9412 121.43 86.9412H133.497V99.7432L142.137 86.9412H162.859C166.238 86.9412 169.48 85.5992 171.87 83.2092C174.26 80.8192 175.603 77.5772 175.603 74.1972V38.1976C175.603 36.5179 175.271 34.8548 174.626 33.304C173.981 31.7531 173.036 30.345 171.844 29.1606C170.653 27.9763 169.24 27.0391 167.686 26.4029C166.131 25.7667 164.466 25.4441 162.787 25.4536Z" fill="white"></path><path d="M133.9 74.5432L135.34 75.7242L137.86 73.2042L136.679 71.7639C137.364 70.7661 137.853 69.6469 138.119 68.4663L139.948 68.2935V64.7511L138.119 64.5783C137.853 63.3976 137.364 62.2785 136.679 61.2807L137.86 59.8407L135.34 57.3207L133.9 58.5015C132.897 57.8419 131.778 57.3777 130.602 57.1335L130.43 55.2903H126.887L126.714 57.1335C125.543 57.3751 124.428 57.8395 123.431 58.5015L121.991 57.3207L119.471 59.8407L120.652 61.2807C119.992 62.2839 119.528 63.4027 119.284 64.5783L117.455 64.7511V68.3079L119.284 68.4807C119.528 69.6562 119.992 70.775 120.652 71.7783L119.471 73.2182L121.991 75.7382L123.431 74.5572C124.428 75.2192 125.543 75.6842 126.714 75.9252L126.887 77.7682H130.444L130.617 75.9252C131.788 75.6752 132.902 75.2062 133.9 74.5432ZM123.82 66.5367C123.82 65.5826 124.103 64.6499 124.633 63.8566C125.163 63.0633 125.917 62.445 126.798 62.0799C127.679 61.7148 128.649 61.6192 129.585 61.8054C130.521 61.9915 131.381 62.4509 132.055 63.1256C132.73 63.8002 133.189 64.6598 133.375 65.5956C133.562 66.5313 133.466 67.5013 133.101 68.3827C132.736 69.2642 132.117 70.0176 131.324 70.5477C130.531 71.0777 129.598 71.3607 128.644 71.3607C128.011 71.3588 127.384 71.2321 126.799 70.988C126.215 70.7438 125.684 70.3869 125.237 69.9376C124.791 69.4883 124.437 68.9554 124.196 68.3694C123.956 67.7834 123.833 67.1558 123.834 66.5223L123.82 66.5367Z" fill="#4679BD"></path><path d="M158.365 63.2105L160.425 64.9097L164.053 61.2809L162.354 59.2217C163.305 57.776 163.975 56.1638 164.327 54.4697L166.977 54.2249V49.0697L164.327 48.8249C163.975 47.1308 163.305 45.5185 162.354 44.0729L164.053 42.0137L160.425 38.3705L158.365 40.0841C156.921 39.1286 155.308 38.4544 153.613 38.0969L153.354 35.4473H148.213L147.969 38.0825C146.274 38.44 144.661 39.1142 143.217 40.0697L141.157 38.3561L137.514 41.9993L139.228 44.0585C138.272 45.5033 137.598 47.1156 137.241 48.8105L134.591 49.0553V54.2105L137.241 54.4553C137.598 56.1502 138.272 57.7624 139.228 59.2073L137.514 61.2665L141.157 64.8953L143.217 63.1961C144.659 64.153 146.273 64.8229 147.969 65.1689L148.213 67.8185H153.354L153.613 65.1689C155.308 64.8273 156.922 64.1624 158.365 63.2105ZM143.821 51.6905C143.821 50.312 144.23 48.9645 144.996 47.8184C145.762 46.6722 146.85 45.7789 148.124 45.2514C149.397 44.7239 150.799 44.5859 152.151 44.8548C153.503 45.1237 154.745 45.7875 155.719 46.7622C156.694 47.7369 157.358 48.9788 157.627 50.3308C157.896 51.6827 157.758 53.0841 157.23 54.3576C156.703 55.6311 155.809 56.7196 154.663 57.4855C153.517 58.2513 152.169 58.6601 150.791 58.6601C149.872 58.6601 148.962 58.4784 148.114 58.1254C147.265 57.7725 146.495 57.2552 145.847 56.6035C145.2 55.9517 144.687 55.1783 144.339 54.3277C143.992 53.4771 143.816 52.5662 143.821 51.6473V51.6905Z" fill="#4679BD"></path><path d="M132.819 163.117C144.929 165.825 169.625 193.516 169.625 193.516L214.265 197.994L214.74 208.535C214.74 208.535 171.079 209.413 165.435 208.881C159.79 208.348 132.862 187.41 132.862 187.41L132.819 163.117Z" fill="#4679BD"></path><path opacity="0.7" d="M214.727 208.535C214.727 208.535 171.08 209.399 165.435 208.881C162.555 208.621 154.419 203.221 146.96 197.893C143.173 195.201 139.573 192.508 136.952 190.535C134.331 188.562 132.863 187.41 132.863 187.41V163.103C144.973 165.825 169.655 193.516 169.655 193.516L214.295 197.994L214.727 208.535Z" fill="white"></path><path d="M213.286 208.103L226.549 207.095L223.827 195.791C223.827 195.791 214.453 195.186 211.198 202.214L213.286 208.103Z" fill="#EBB376"></path><path d="M234.555 202.026L230.509 194.092L223.827 195.791L226.549 207.095L234.555 202.026Z" fill="#EBB376"></path><path opacity="0.1" d="M146.916 197.893C143.129 195.201 139.529 192.508 136.908 190.535C135.887 187.473 135.543 184.225 135.9 181.017C135.9 181.017 145.116 188.202 146.916 197.893Z" fill="black"></path><path d="M107.029 440.562L94.9183 440.749C94.7206 440.758 94.5313 440.832 94.3801 440.959C94.2289 441.087 94.1245 441.261 94.0831 441.455L92.3263 450.383C92.2846 450.573 92.282 450.77 92.3186 450.962C92.3553 451.153 92.4304 451.335 92.5394 451.497C92.6485 451.658 92.7892 451.796 92.9531 451.902C93.1169 452.007 93.3005 452.079 93.4927 452.111H93.8095C97.7263 451.981 100.578 451.693 105.503 451.621C108.527 451.621 117.671 451.737 121.847 451.621C126.023 451.506 126.512 447.417 124.799 447.057C117.095 445.501 111.277 443.284 108.786 441.109C108.294 440.704 107.664 440.508 107.029 440.562Z" fill="#676767"></path><path d="M209.081 440.562L196.971 440.75C196.773 440.758 196.584 440.832 196.433 440.96C196.282 441.087 196.177 441.262 196.136 441.455L194.307 450.383C194.265 450.574 194.263 450.77 194.299 450.962C194.336 451.153 194.411 451.335 194.52 451.497C194.629 451.659 194.77 451.796 194.934 451.902C195.098 452.007 195.281 452.079 195.473 452.111H195.805C199.721 451.982 202.558 451.694 207.483 451.622C210.507 451.622 219.651 451.737 223.841 451.622C228.032 451.506 228.493 447.417 226.721 447.057C219.017 445.502 213.2 443.284 210.709 441.11C210.252 440.733 209.673 440.538 209.081 440.562Z" fill="#676767"></path><path d="M92.2109 441.182H108.699C108.699 441.182 129.694 371.975 131.509 354.321C133.323 336.666 133.971 292.401 133.971 292.401V292.473C134.677 293.423 140.912 302.193 148.083 312.359C157.458 325.694 168.459 341.447 170.763 345.306C177.574 356.668 194.221 441.124 194.221 441.124H210.694C210.694 441.124 206.547 365.538 198.08 340.626C189.613 315.714 153.008 261.311 151.424 258.374C149.394 254.658 144.411 242.822 144.411 242.822L95.0045 249.676C95.0045 249.676 95.6381 258.042 95.6957 265.358C95.9261 292.804 105.43 329.913 106.266 339.878C107.893 358.9 92.2109 441.182 92.2109 441.182Z" fill="#263238"></path><path d="M132.819 163.118C132.819 163.118 147.608 189.498 144.469 242.865L95.0766 249.748C93.6366 242.202 93.291 204.546 81.0078 169.842C86.3264 168.029 91.757 166.562 97.2654 165.45C104.203 164.09 111.213 163.129 118.261 162.57C123.12 162.376 127.988 162.559 132.819 163.118Z" fill="#4679BD"></path><path opacity="0.7" d="M144.469 242.865L104.624 248.409L95.0766 249.733C94.2126 245.125 93.7374 229.185 90.6702 209.543C90.6702 209.125 90.5406 208.693 90.4686 208.261C89.6046 202.861 88.539 197.202 87.2142 191.428C85.5499 184.118 83.4778 176.906 81.0078 169.828C86.3246 168.043 91.7501 166.6 97.251 165.508C104.193 164.141 111.208 163.179 118.261 162.628C123.122 162.456 127.988 162.653 132.819 163.218C132.819 163.218 147.594 189.484 144.469 242.865Z" fill="white"></path><path d="M102.09 169.842L113.956 175.473L116.62 178.713C116.62 178.713 120.853 200.773 120.407 218.053L124.9 222.042L128.312 215.389C128.312 215.389 121.256 184.3 118.981 177.949L119.586 173.86L121.674 165.22L102.839 166.386L102.09 169.842Z" fill="#263238"></path><path d="M96.1426 142.857C98.605 149.351 102.018 161.447 98.0866 166.746C104.999 168.374 109.952 169.439 116.26 173.414C117.498 168.95 118.981 163.175 118.981 163.175C111.176 162.671 110.428 157.07 110.845 151.655L96.1426 142.857Z" fill="#EBB376"></path><path opacity="0.2" d="M102.133 146.428L110.773 151.612C110.665 152.881 110.665 154.158 110.773 155.428C107.893 155.514 103.372 153.037 102.551 150.085C102.19 148.902 102.049 147.662 102.133 146.428Z" fill="black"></path><path d="M92.2109 441.182H108.699C108.699 441.182 129.694 371.975 131.509 354.321C133.323 336.666 133.971 292.401 133.971 292.401V292.473C134.677 293.423 140.912 302.193 148.083 312.359C157.458 325.694 168.459 341.447 170.763 345.306C177.574 356.668 194.221 441.124 194.221 441.124H210.694C210.694 441.124 206.547 365.538 198.08 340.626C189.613 315.714 153.008 261.311 151.424 258.374C149.394 254.658 144.411 242.822 144.411 242.822L95.0045 249.676C95.0045 249.676 95.6381 258.042 95.6957 265.358C95.9261 292.804 105.43 329.913 106.266 339.878C107.893 358.9 92.2109 441.182 92.2109 441.182Z" fill="#4679BD"></path><path d="M91.0879 166.833L95.1919 161.721L108.483 164.284L115.237 172.017L116.086 163.089L118.578 160.094L124.035 162.455V168.042L120.147 166.775L116.792 174.566L106.165 170.202L103.803 173.212L91.0879 166.833Z" fill="#4679BD"></path><path opacity="0.9" d="M91.0879 166.833L95.1919 161.721L108.483 164.284L115.237 172.017L116.086 163.089L118.578 160.094L124.035 162.455V168.042L120.147 166.775L116.792 174.566L106.165 170.202L103.803 173.212L91.0879 166.833Z" fill="white"></path><path opacity="0.1" d="M116.792 174.565L118.074 165.234L124.035 168.042L120.147 166.775L116.792 174.565Z" fill="black"></path><path opacity="0.1" d="M116.792 174.566L106.942 167.337L103.803 173.212L106.165 170.202L116.792 174.566Z" fill="black"></path><path opacity="0.2" d="M133.972 292.43V292.502C134.677 293.452 140.913 302.222 148.084 312.388C148.791 306.869 147.849 301.264 145.376 296.28C142.903 291.296 139.01 287.155 134.188 284.38L133.972 292.43Z" fill="black"></path><path d="M113.465 119.874C116.345 122.337 116.777 126.7 117.31 129.45C117.843 132.201 118.865 135.729 114.733 132.46C110.6 129.191 104.566 114.071 113.465 119.874Z" fill="#263238"></path><path d="M93.2331 136.046C95.8395 145.103 94.8459 146.86 100.519 150.446C109.073 155.932 120.795 154.766 120.406 145.132C120.046 136.42 117.526 121.055 107.763 119.471C105.585 119.107 103.351 119.305 101.271 120.047C99.1914 120.789 97.336 122.05 95.8805 123.711C94.4251 125.371 93.4179 127.375 92.9546 129.534C92.4913 131.693 92.5871 133.934 93.2331 136.046Z" fill="#EBB376"></path><path d="M95.5519 142.05C100.39 141.157 99.4111 139.314 99.0655 138.897C97.4959 137.097 98.4463 133.957 99.3823 129.925C100.318 125.893 92.0383 122.725 86.7535 125.145C81.8719 127.434 87.4447 143.562 95.5519 142.05Z" fill="#263238"></path><path d="M90.3967 143.101C91.6236 144.902 93.4856 146.172 95.6095 146.658C98.3023 147.177 99.1375 144.484 97.9567 141.849C96.8911 139.473 94.2127 136.348 91.7215 137.025C89.2303 137.701 88.8127 140.783 90.3967 143.101Z" fill="#EBB376"></path><path d="M112.717 132.993C113.803 134.69 115.116 136.231 116.619 137.572C116.265 137.95 115.833 138.247 115.354 138.443C114.874 138.639 114.358 138.73 113.84 138.71L112.717 132.993Z" fill="#D58745"></path><path d="M86.0043 121.17C87.4443 117.758 103.457 112.674 110.312 113.97C110.942 114.014 111.554 114.198 112.104 114.51C112.653 114.821 113.126 115.251 113.488 115.769C113.85 116.287 114.091 116.879 114.194 117.502C114.298 118.125 114.26 118.764 114.085 119.37C111.91 125.951 106.251 123.402 106.251 123.402C105.342 122.981 104.359 122.745 103.359 122.707C102.358 122.669 101.36 122.83 100.422 123.181C99.4842 123.532 98.6254 124.066 97.8956 124.752C97.1659 125.437 96.5795 126.261 96.1707 127.175L86.2635 126.326C85.7832 125.56 85.5071 124.684 85.4617 123.782C85.4164 122.879 85.6032 121.98 86.0043 121.17Z" fill="#263238"></path><path d="M106.151 133.583C106.309 134.361 106.842 134.893 107.346 134.793C107.85 134.692 108.138 133.972 107.979 133.194C107.821 132.417 107.274 131.884 106.77 131.999C106.266 132.114 105.992 132.834 106.151 133.583Z" fill="#263238"></path><path d="M114.877 131.711C115.035 132.489 115.582 133.021 116.086 132.921C116.59 132.82 116.864 132.085 116.706 131.322C116.547 130.559 116.014 130.012 115.51 130.113C115.006 130.213 114.718 130.933 114.877 131.711Z" fill="#263238"></path><path d="M101.399 131.596C101.482 131.589 101.562 131.559 101.63 131.511C101.698 131.463 101.753 131.398 101.788 131.322C102.021 130.786 102.377 130.312 102.827 129.939C103.277 129.566 103.809 129.305 104.38 129.177C104.504 129.159 104.615 129.093 104.691 128.993C104.766 128.893 104.799 128.768 104.783 128.644C104.762 128.526 104.697 128.42 104.6 128.348C104.504 128.275 104.384 128.242 104.265 128.255C103.539 128.404 102.859 128.726 102.283 129.192C101.707 129.658 101.25 130.255 100.952 130.934C100.926 130.988 100.91 131.048 100.906 131.109C100.902 131.17 100.911 131.231 100.931 131.288C100.951 131.346 100.983 131.399 101.023 131.444C101.064 131.49 101.113 131.527 101.169 131.553C101.242 131.581 101.32 131.596 101.399 131.596Z" fill="#263238"></path><path d="M116.548 128.111C116.637 128.111 116.723 128.081 116.793 128.025C116.843 127.988 116.886 127.941 116.917 127.887C116.949 127.834 116.97 127.774 116.978 127.712C116.986 127.65 116.981 127.587 116.964 127.527C116.947 127.467 116.918 127.411 116.879 127.362C116.442 126.773 115.87 126.299 115.211 125.978C114.552 125.657 113.825 125.5 113.092 125.519C113.031 125.524 112.972 125.542 112.918 125.57C112.865 125.598 112.817 125.637 112.778 125.684C112.739 125.731 112.71 125.785 112.692 125.843C112.674 125.901 112.668 125.962 112.674 126.023C112.678 126.083 112.694 126.142 112.72 126.195C112.747 126.249 112.784 126.297 112.83 126.336C112.876 126.375 112.929 126.404 112.986 126.422C113.044 126.44 113.104 126.447 113.164 126.441C113.74 126.42 114.313 126.54 114.833 126.791C115.352 127.042 115.803 127.416 116.145 127.881C116.185 127.951 116.244 128.01 116.315 128.05C116.386 128.091 116.466 128.112 116.548 128.111Z" fill="#263238"></path><path d="M113.524 143.447C111.846 143.475 110.188 143.084 108.7 142.309C108.617 142.258 108.556 142.179 108.53 142.085C108.503 141.992 108.512 141.892 108.556 141.805C108.604 141.724 108.682 141.664 108.774 141.64C108.865 141.616 108.963 141.629 109.045 141.676C110.944 142.599 113.079 142.92 115.165 142.597C115.259 142.581 115.355 142.601 115.433 142.655C115.511 142.709 115.565 142.792 115.583 142.885C115.593 142.932 115.594 142.98 115.585 143.027C115.576 143.074 115.557 143.118 115.53 143.157C115.503 143.196 115.468 143.23 115.428 143.255C115.387 143.28 115.342 143.296 115.295 143.303C114.71 143.405 114.117 143.453 113.524 143.447Z" fill="#263238"></path><path opacity="0.1" d="M104.624 248.409L95.0763 249.734C94.2123 245.126 93.7371 229.185 90.6699 209.543C94.0683 200.5 97.3515 193.631 97.3515 193.631C103.95 200.592 109.747 208.273 114.632 216.527C120.521 226.406 114.704 241.338 104.624 248.409Z" fill="black"></path><path d="M492.128 11.7737L413.72 14.8409L421.021 25.4681L427.083 33.5465L300.983 128.097L240.099 119.399L62.792 252.354L70.0784 262.967L95.9984 297.541L258.992 175.314L319.875 184.026L460.722 78.4172L474.503 96.8052L499.415 22.4009L492.128 11.7737Z" fill="#4679BD"></path><path opacity="0.2" d="M492.128 11.7737L413.72 14.8409L421.021 25.4681L427.083 33.5465L300.983 128.097L240.099 119.399L62.792 252.354L70.0784 262.967L95.9984 297.541L258.992 175.314L319.875 184.026L460.722 78.4172L474.503 96.8052L499.415 22.4009L492.128 11.7737Z" fill="black"></path><path d="M492.128 11.7737L413.72 14.8409L427.501 33.2297L300.983 128.097L240.099 119.399L62.792 252.354L88.6976 286.914L251.706 164.687L312.575 173.399L453.421 67.7897L467.216 86.1782L492.128 11.7737Z" fill="#4679BD"></path><path d="M492.128 11.7737L413.72 14.8409L427.501 33.2297L300.983 128.097L240.099 119.399L62.792 252.354L88.6976 286.914L251.706 164.687L312.575 173.399L453.421 67.7897L467.216 86.1782L492.128 11.7737Z" fill="#4679BD"></path><path d="M148.083 233.101L159.949 239.121L153.094 248.524C153.094 248.524 144.21 245.471 143.893 237.738L148.083 233.101Z" fill="#EBB376"></path><path d="M165.393 246.868L158.61 252.657L153.095 248.524L159.949 239.121L165.393 246.868Z" fill="#EBB376"></path><path d="M81.0081 169.842C68.0481 177.892 89.6481 220.012 93.7665 226.305C97.8849 232.598 143.893 242.879 143.893 242.879L149.581 233.102L106.813 214.094L93.7665 181.406C88.6977 171.023 81.0081 169.842 81.0081 169.842Z" fill="#4679BD"></path><path opacity="0.7" d="M81.0081 169.842C68.0481 177.892 89.6481 220.012 93.7665 226.305C97.8849 232.598 143.893 242.879 143.893 242.879L149.581 233.102L106.813 214.094L93.7665 181.406C88.6977 171.023 81.0081 169.842 81.0081 169.842Z" fill="white"></path><path d="M468.585 449.85L477.484 446.164L471.479 424.535L462.58 428.221L468.585 449.85Z" fill="#FFB573"></path><path d="M477.556 431.663L460.665 438.661C460.665 438.661 445.719 383.495 431.319 355.069C423.413 339.488 409.948 314.749 398.198 293.61C392.438 283.127 387.081 273.536 383.063 266.351C378.657 258.445 375.863 253.463 375.863 253.463L404.462 234.21C404.462 234.21 443.126 311.495 454.689 338.408C467.376 367.885 477.556 431.663 477.556 431.663Z" fill="#263238"></path><path d="M476.807 441.167H465.071C464.88 441.169 464.694 441.235 464.545 441.355C464.396 441.476 464.292 441.643 464.25 441.829L462.321 450.383C462.282 450.593 462.291 450.808 462.346 451.014C462.401 451.22 462.501 451.411 462.638 451.573C462.776 451.736 462.948 451.866 463.142 451.954C463.336 452.042 463.548 452.086 463.761 452.082C467.533 452.082 470.298 451.794 475.05 451.794C477.93 451.794 486.786 452.111 490.89 452.111C494.994 452.111 495.498 448.108 493.842 447.791C486.441 446.164 480.882 443.932 478.535 441.801C478.306 441.582 478.034 441.413 477.737 441.304C477.44 441.195 477.123 441.148 476.807 441.167Z" fill="#4D6BA6"></path><path opacity="0.3" d="M398.256 293.61C392.496 283.127 387.139 273.536 383.121 266.351C385.258 266.063 387.429 266.488 389.299 267.56C394.533 275.3 397.623 284.288 398.256 293.61Z" fill="black"></path><path d="M442.997 106.9L450.197 95.7112L439.541 91.0742C439.541 91.0742 433.406 98.1732 437.049 105.013L442.997 106.9Z" fill="#FFB573"></path><path d="M450.988 86.2792L442.204 84.7092L439.54 91.0602L450.196 95.7112L450.988 86.2792Z" fill="#FFB573"></path><path d="M421.958 189.325C441.513 173.255 451.737 162.599 455.654 156.205C459.57 149.812 445.127 104.034 445.127 104.034L433.866 104.552L438.978 149.696L421.698 163.909L421.958 189.325Z" fill="#263238"></path><path opacity="0.2" d="M455.668 156.22C452.126 161.98 443.5 171.167 427.545 184.674C425.769 186.172 423.906 187.722 421.958 189.325L421.871 180.944L421.698 163.909L438.978 149.696L433.852 104.552L445.127 104.034C445.127 104.034 459.527 149.826 455.668 156.22Z" fill="white"></path><path opacity="0.2" d="M427.545 184.674C425.769 186.172 423.906 187.722 421.958 189.325L421.871 180.944C423.912 181.944 425.818 183.197 427.545 184.674Z" fill="black"></path><path d="M325.29 448.784L334.708 450.757L341.965 429.517L332.548 427.53L325.29 448.784Z" fill="#FFB573"></path><path d="M394.9 235.002C394.9 235.002 383.207 320.625 377.447 349.353C371.241 380.831 343.636 439.209 343.636 439.209L325.751 435.45C325.751 435.45 344.558 381.493 348.719 349.885C353.37 314.562 360.354 234.685 360.354 234.685L394.9 235.002Z" fill="#263238"></path><path d="M338.135 441.167H326.399C326.208 441.169 326.022 441.235 325.873 441.355C325.725 441.475 325.621 441.642 325.578 441.829L323.591 450.383C323.553 450.592 323.561 450.808 323.616 451.014C323.671 451.22 323.771 451.411 323.909 451.573C324.047 451.736 324.219 451.866 324.413 451.954C324.607 452.042 324.818 452.085 325.031 452.082C328.804 452.082 331.569 451.794 336.321 451.794C339.201 451.794 348.071 452.111 352.161 452.111C356.25 452.111 356.769 448.108 355.113 447.791C347.726 446.164 342.153 443.932 339.806 441.8C339.583 441.589 339.321 441.424 339.034 441.315C338.747 441.206 338.442 441.156 338.135 441.167Z" fill="#4D6BA6"></path><path d="M414.643 233.188C425.861 192.997 420.734 170.706 420.734 170.706C416.842 169.371 412.87 168.284 408.84 167.452C407.99 167.264 407.126 167.12 406.248 166.976C399.156 166.04 392.016 165.516 384.864 165.407C383.525 165.407 382.171 165.407 380.846 165.407C376.53 165.563 372.265 166.389 368.203 167.855C368.462 177.671 367.956 187.493 366.691 197.231C365.841 204.431 366.173 211.372 365.021 217.592C363.926 223.453 364.257 228.724 363.264 233.188H414.643Z" fill="#4679BD"></path><path opacity="0.7" d="M414.643 233.188C425.861 192.997 420.734 170.706 420.734 170.706C416.842 169.371 412.87 168.284 408.84 167.452C407.99 167.264 407.126 167.12 406.248 166.976C399.156 166.04 392.016 165.516 384.864 165.407C383.525 165.407 382.171 165.407 380.846 165.407C376.53 165.563 372.265 166.389 368.203 167.855C368.462 177.671 367.956 187.493 366.691 197.231C365.841 204.431 366.173 211.372 365.021 217.592C363.926 223.453 364.257 228.724 363.264 233.188H414.643Z" fill="white"></path><path d="M401.798 179.116C403.335 186.956 404.183 194.916 404.333 202.904C403.397 204.82 402.144 209.485 401.02 211.372C400.2 209.212 398.76 204.762 397.779 202.588C398.659 193.199 400.315 183.868 399.811 178.871L401.798 179.116Z" fill="#4679BD"></path><path d="M399.652 177.445C396.697 176.705 393.937 175.335 391.561 173.428C389.185 171.522 387.249 169.125 385.886 166.4C387.468 165.526 388.786 164.243 389.702 162.685C391.789 159.12 393.25 155.224 394.022 151.165C394.524 148.834 394.908 146.479 395.174 144.109L399.494 151.021L404.289 158.581C403.568 159.721 402.938 160.915 402.403 162.152C400.963 165.637 401.035 168.992 405.283 171.57C405.859 174.162 405.34 179.044 399.652 177.445Z" fill="#FFB573"></path><path d="M401.208 182.082L403.67 177.69L400.545 175.717L397.779 176.869L401.208 182.082Z" fill="#4679BD"></path><path d="M400.488 175.717C400.488 175.717 397.838 178.208 394.829 180.599C391.286 178.007 383.064 171.239 384.158 166.199C384.826 165.221 385.814 164.508 386.952 164.183C390.816 168.729 395.387 172.623 400.488 175.717Z" fill="white"></path><path d="M400.488 175.717C402.175 177.606 403.586 179.725 404.678 182.01C407.731 180.469 406.636 170.49 405.743 169.252C404.648 167.736 403.2 166.511 401.524 165.68C402.292 169.049 401.927 172.577 400.488 175.717Z" fill="white"></path><path d="M355.848 263.96L391.545 267.56L397.723 252.959L403.584 266.207L419.654 261.109L411.23 244.232C427.344 205.064 421.641 163.909 421.641 163.909C414.326 165.68 405.557 166.861 405.557 166.861C414.917 181.088 400.963 211.372 400.963 211.372C392.568 187.986 382.531 165.392 382.531 165.392C376.191 165.645 369.958 167.111 364.171 169.712C364.171 169.712 365.87 217.564 361.032 231.114C356.193 244.664 355.848 263.96 355.848 263.96Z" fill="#263238"></path><path opacity="0.2" d="M411.302 244.232L419.712 261.109L403.641 266.207L397.781 252.973L391.603 267.503L355.848 263.96C355.848 263.96 356.208 244.621 361.032 231.071C362.573 226.751 363.451 218.989 363.912 210.392C364.329 203.192 364.445 195.359 364.445 188.533C364.445 177.92 364.157 169.684 364.157 169.684C369.943 167.079 376.176 165.612 382.517 165.364C382.517 165.364 392.597 187.957 400.949 211.343C400.949 211.343 414.917 181.103 405.542 166.847C405.542 166.847 414.326 165.652 421.627 163.88C421.699 163.909 427.416 205.064 411.302 244.232Z" fill="white"></path><path d="M388.06 184.732L380.226 194.596C380.226 194.596 398.543 207.7 403.914 229.472L401.999 216.757L417.047 195.618L410.121 186.978L418.358 180.872C418.358 180.872 411.273 168.949 405.614 166.876C414.974 181.103 401.02 211.386 401.02 211.386C392.625 188 382.588 165.407 382.588 165.407C377.892 169.208 374.359 174.253 372.393 179.965L388.06 184.732Z" fill="#263238"></path><path opacity="0.2" d="M404.303 158.61C403.582 159.75 402.952 160.944 402.417 162.181C398.408 164.011 393.842 164.192 389.701 162.685C391.789 159.12 393.25 155.224 394.021 151.165C395.85 151.036 397.722 150.992 399.551 151.021L404.303 158.61Z" fill="black"></path><path d="M386.562 130.703C384.82 134.116 384.215 141.604 389.63 140.034C395.044 138.464 389.529 124.785 386.562 130.703Z" fill="#263238"></path><path d="M411.648 139.818C410.654 149.149 410.553 154.665 405.6 159.215C398.169 166.055 386.793 161.145 384.964 151.669C383.323 143.159 385.224 129.321 394.555 126.095C396.624 125.383 398.84 125.207 400.996 125.582C403.152 125.958 405.178 126.874 406.885 128.244C408.591 129.614 409.923 131.394 410.756 133.418C411.589 135.442 411.895 137.644 411.648 139.818Z" fill="#FFB573"></path><path d="M418.862 131.423L409.027 127.823L406.996 133.583L407.673 133.439C407.673 133.439 405.715 141.992 409.603 146.399C417.595 143.317 421.972 135.858 418.862 131.423Z" fill="#263238"></path><path d="M414.887 147.781C414.483 148.874 413.867 149.875 413.073 150.728C412.28 151.581 411.325 152.268 410.265 152.749C407.385 154.002 405.513 151.554 405.945 148.617C406.305 145.967 408.22 142.137 411.273 142.108C411.938 142.122 412.589 142.301 413.169 142.627C413.748 142.954 414.238 143.418 414.596 143.979C414.953 144.54 415.167 145.18 415.217 145.844C415.268 146.507 415.155 147.172 414.887 147.781Z" fill="#FFB573"></path><path d="M397.318 141.661C397.318 142.424 396.843 143.029 396.353 143C395.864 142.972 395.475 142.324 395.504 141.56C395.532 140.797 395.979 140.207 396.468 140.236C396.958 140.264 397.347 140.898 397.318 141.661Z" fill="#263238"></path><path d="M388.693 141.201C388.693 141.964 388.218 142.554 387.728 142.525C387.239 142.497 386.85 141.863 386.879 141.085C386.907 140.308 387.354 139.732 387.843 139.746C388.333 139.761 388.722 140.437 388.693 141.201Z" fill="#263238"></path><path d="M391.416 141.719C390.375 143.924 389.032 145.974 387.427 147.81C387.936 148.191 388.52 148.459 389.141 148.598C389.761 148.737 390.404 148.744 391.027 148.616L391.416 141.719Z" fill="#EE923F"></path><path d="M394.986 151.756C394.656 151.778 394.324 151.778 393.993 151.756C393.959 151.764 393.923 151.765 393.889 151.758C393.854 151.751 393.822 151.736 393.794 151.715C393.767 151.693 393.744 151.665 393.729 151.634C393.713 151.602 393.705 151.568 393.705 151.533C393.705 151.497 393.713 151.463 393.729 151.431C393.744 151.4 393.767 151.372 393.794 151.351C393.822 151.329 393.854 151.314 393.889 151.307C393.923 151.3 393.959 151.301 393.993 151.309C394.938 151.382 395.887 151.23 396.762 150.867C397.638 150.505 398.416 149.941 399.033 149.221C399.076 149.181 399.132 149.158 399.191 149.158C399.25 149.158 399.307 149.181 399.35 149.221C399.39 149.264 399.413 149.321 399.413 149.38C399.413 149.439 399.39 149.495 399.35 149.538C398.811 150.185 398.147 150.715 397.396 151.096C396.646 151.478 395.826 151.702 394.986 151.756Z" fill="#263238"></path><path d="M400.098 139.026C400.017 139.032 399.936 139.017 399.862 138.982C399.789 138.946 399.726 138.892 399.681 138.824C399.377 138.35 398.966 137.954 398.481 137.669C397.995 137.383 397.449 137.217 396.887 137.183C396.767 137.183 396.652 137.136 396.566 137.053C396.48 136.97 396.43 136.856 396.426 136.736C396.424 136.679 396.434 136.621 396.455 136.567C396.476 136.513 396.507 136.463 396.548 136.422C396.588 136.38 396.636 136.347 396.69 136.324C396.743 136.302 396.8 136.29 396.858 136.29C397.584 136.309 398.294 136.505 398.927 136.862C399.559 137.218 400.095 137.724 400.487 138.335C400.554 138.432 400.579 138.552 400.557 138.668C400.536 138.784 400.469 138.887 400.372 138.954C400.291 139.008 400.195 139.033 400.098 139.026Z" fill="#263238"></path><path d="M385.109 138.032C385.023 138.053 384.935 138.053 384.85 138.032C384.747 137.975 384.671 137.879 384.638 137.766C384.606 137.652 384.62 137.531 384.677 137.428C385.001 136.798 385.473 136.255 386.053 135.847C386.632 135.438 387.301 135.175 388.003 135.08C388.122 135.076 388.239 135.116 388.329 135.194C388.42 135.271 388.478 135.38 388.493 135.498C388.497 135.557 388.489 135.616 388.47 135.671C388.451 135.727 388.421 135.778 388.383 135.822C388.344 135.867 388.297 135.903 388.244 135.929C388.191 135.954 388.134 135.97 388.075 135.973C387.519 136.05 386.991 136.263 386.537 136.592C386.082 136.921 385.716 137.356 385.469 137.86C385.424 137.911 385.368 137.954 385.307 137.983C385.245 138.013 385.177 138.03 385.109 138.032Z" fill="#263238"></path><path d="M410.091 136.463C409.853 136.563 409.608 136.645 409.357 136.708C408.672 136.878 407.955 136.872 407.273 136.69C406.59 136.509 405.965 136.158 405.455 135.671C403.367 133.684 404.807 126.383 396.599 127.823C395.881 127.398 395.057 127.189 394.224 127.223C393.391 127.256 392.585 127.529 391.904 128.01C389.399 129.666 388.146 138.177 384.618 135.858C381.09 133.54 382.127 132.546 382.127 132.546C382.127 132.546 383.005 133.569 383.811 133.223C383.406 132.566 383.208 131.803 383.244 131.032C383.28 130.261 383.548 129.519 384.013 128.903C384.013 128.903 384.618 130.343 385.309 130.343C385.679 126.86 387.106 123.573 389.399 120.925C393.373 116.029 406.679 121.53 406.679 121.53C406.679 121.53 409.314 119.183 414.901 123.129C420.488 127.074 420.992 135.426 419.005 138.393" fill="#263238"></path><path opacity="0.2" d="M369.584 189.325C369.584 189.325 369.282 202.645 363.983 210.393C364.4 203.193 364.515 195.359 364.515 188.533C366.245 188.166 368.049 188.448 369.584 189.325Z" fill="black"></path><path d="M314.62 186.618L301.43 184.861L304.785 173.73C304.785 173.73 314.174 173.73 317.039 180.93L314.62 186.618Z" fill="#FFB573"></path><path d="M293.726 179.361L298.219 171.657L304.785 173.73L301.43 184.876L293.726 179.361Z" fill="#FFB573"></path><path d="M372.393 189.325C372.393 189.325 352.781 217.65 345.566 219.695C338.352 221.74 309.768 186.863 309.768 186.863L316.205 177.589L342.427 200.5C342.427 200.5 356.078 175.732 364.286 169.684L372.393 189.325Z" fill="#263238"></path><path opacity="0.2" d="M372.393 189.325C372.393 189.325 352.781 217.65 345.566 219.695C338.352 221.74 309.768 186.863 309.768 186.863L316.205 177.589L342.427 200.5C342.427 200.5 356.078 175.732 364.286 169.684L372.393 189.325Z" fill="white"></path></svg>