<?xml version="1.0" encoding="utf-8"?>
<!-- Generator: Adobe Illustrator 27.1.1, SVG Export Plug-In . SVG Version: 6.00 Build 0)  -->
<svg version="1.1" id="Layer_1" xmlns="http://www.w3.org/2000/svg" xmlns:xlink="http://www.w3.org/1999/xlink" x="0px" y="0px"
	 viewBox="0 0 220.5 155.1" style="enable-background:new 0 0 220.5 155.1;" xml:space="preserve">
<style type="text/css">
	.st0{fill:#39C9CB;}
	.st1{fill:#FFFFFF;}
	.st2{fill:#B59CFE;}
	.st3{fill:#1A1A1A;}
	.st4{fill:#6F8CFF;}
	.st5{fill:#FCD8C5;}
	.st6{fill:#CBD5FF;}
	.st7{fill:#986830;}
	.st8{fill:#CCCCCC;}
</style>
<g>
	<path class="st0" d="M28.6,102H13.9c-1.8,0-3.3-1.5-3.3-3.3V86.4c0-1.8,1.5-3.3,3.3-3.3h14.7c1.8,0,3.3,1.5,3.3,3.3v12.2
		C31.9,100.5,30.4,102,28.6,102z"/>
	<path class="st1" d="M116.5,66.5H31.9c-2.6,0-4.7-2.1-4.7-4.7V6c0-2.6,2.1-4.7,4.7-4.7h84.6c2.6,0,4.7,2.1,4.7,4.7v55.8
		C121.2,64.4,119.1,66.5,116.5,66.5z"/>
	<path class="st2" d="M210.8,124.4H144c-2.6,0-4.7-2.1-4.7-4.7v-52c0-2.6,2.1-4.7,4.7-4.7h66.8c2.6,0,4.7,2.1,4.7,4.7v52
		C215.5,122.3,213.4,124.4,210.8,124.4z"/>
	<path class="st3" d="M206.3,110c0,0-0.7-0.3-6.4-3.3c-5.7-3-8.6-3.8-10.7-4c-2.1-0.2-5.1,0.4-6.8,1.1c-1.7,0.7-7.4,2.8-9.9,3.2
		c-2.5,0.3-5.5-0.7-6.7-1.2c-1.2-0.5-10.4-6.1-10.4-6.1s-2,22.2-2.8,29.4h45.8c4.4,0,8.1-3.6,8.1-8.1v-10.8
		C206.4,110,206.3,110,206.3,110z"/>
	<path class="st4" d="M100.6,77.8c0,0-7.2,1.4-12.2,3.7c-5,2.3-9.6,5-9.6,5s4.8-12,5.7-14.5c0.9-2.5,2.7-5.5,2.7-5.5s-2.3-3-2.4-4.5
		c0,0-4.8-0.6-8-2.9c0,0-2.3-1-2.8-1.9c0,0-4.8-3.6-4.5-6.7c0,0-3.4,5.3-7.3,16c-4,10.6-6.3,15-4.5,26.6c1.8,11.7,11.9,14.8,14,15.3
		c2.1,0.5,5.8,1.5,9.6,0.8c3.8-0.7,7.3-2.3,7.3-2.3l-1.1,8.5l-4.1,37.9h54.5l-2.1-21.3c0,0,2.2,5.5,5.7,7.6
		c3.5,2.1,8.1,2.4,12.1,0.2c4.1-2.2,6.1-6.4,6.4-9.6c0.4-3.2,0.3-7.6-1.1-13.5c-1.3-5.9-5.5-23.9-5.5-23.9l-12.5-6
		c0,0-4.4-6.6-11.1-8.1c-6.7-1.5-6.7-1.5-6.7-1.5L100.6,77.8z"/>
	<path class="st5" d="M153.5,93.2c0,0,0.4-4.1-1.5-7.1c-1.9-3-3.4-4.6-3.9-5.5c-0.5-0.9-0.3-4.8-0.6-6.2c-0.3-1.5-0.8-3.7-3.4-3.3
		c-2.6,0.4-3.4,3.9-2.9,6.1c0.4,2.2,2,7.5,1.9,8.2c-0.1,0.7-4.3,3.4-6.5,4.2c-2.2,0.8-6.5,2.4-7.6,4.1c-1.1,1.7-0.7,4,1.4,4.2
		c0,0-2.8,1.4-2.2,3.5c0.6,2,2.5,1.8,2.5,1.8s-0.5,3,2.6,3.4c3.1,0.4,8.9-1.7,10.9-2.8c2-1.1,5.5-2.9,7.1-5.2
		C152.6,96.3,153.5,93.7,153.5,93.2z"/>
	<path class="st5" d="M102.1,58.2c0,0-4.6-0.9-4.7,3.2c-0.1,4,4,4,5.2,3.2c0,0-0.1,9.4,9.3,9.3c9.4-0.1,9.6-7.9,9.6-7.9v-1.2
		c0,0,4.2,1.3,5-1.5c0.7-2.8,0.3-3.9-0.8-4.5c-1.1-0.6-3.8-0.4-3.8-0.4v-1c0,0-3.2-3.5-8.3-5.5c-5.1-2-7.7-2.3-7.7-2.3
		s-2,5.2-3.5,6.3L102.1,58.2z"/>
	<polygon class="st5" points="105.4,70.2 105.4,72.8 100.6,77.8 104,96.2 112.1,84.5 120.3,96.2 123.5,77.4 118.8,72.7 118.9,70.4 	
		"/>
	<path class="st1" d="M192.9,83.2c0,3.7-3,6.7-6.7,6.7c-3.7,0-6.7-3-6.7-6.7c0-3.7,3-6.7,6.7-6.7C189.9,76.5,192.9,79.5,192.9,83.2z
		"/>
	<path class="st1" d="M115.9,149.4H23.3c-2.6,0-4.7-2.1-4.7-4.7v-22.1c0-2.6,2.1-4.7,4.7-4.7h92.6c2.6,0,4.7,2.1,4.7,4.7v22.1
		C120.6,147.3,118.5,149.4,115.9,149.4z"/>
	<path class="st2" d="M38.7,133.7c0,3-2.4,5.4-5.4,5.4c-3,0-5.4-2.4-5.4-5.4c0-3,2.4-5.4,5.4-5.4C36.3,128.3,38.7,130.7,38.7,133.7z
		"/>
	<path class="st6" d="M111.8,1.3H36.6c-5.1,0-9.3,4.2-9.3,9.3v6.3h93.9v-6.3C121.2,5.5,117,1.3,111.8,1.3z"/>
	<path class="st7" d="M100.9,57.7c0,0-0.8-4.4-0.7-5.7c0.1-1.3,1-4.8,2-5.3c1-0.5,1.4-0.6,1.4-0.6s2.3-3.7,7.7-3.8
		c5.4,0,9.4,2.1,11,5c1.6,2.9,1.3,7.2,1.3,8.5c0,1.3-0.3,2.2-0.3,2.2l-1.4,0.1l-0.1-0.8c0,0-4.6-4.5-9.6-6.1
		c-5.1-1.6-6.2-1.8-6.2-1.8s-1.6,4.7-3.5,6.3l-0.1,2.3L100.9,57.7z"/>
	<path class="st5" d="M86.5,56.4c0,0,3.2,1.7,4.6,3.9c1.4,2.2,1.8,7.3-1.1,7.5c-2.8,0.2-4.1-3.1-4.4-4c-0.4-0.9-0.5-2.1-2.7-2.8
		c-2.2-0.7-7.1-1.4-8-2.9c-0.9-1.5-2.4-2.3-2.3-7.1c0,0-1.5-4.9,0.7-7c2.3-2.1,4.8-2,9.5-1.9c4.6,0.1,7.9-2.2,10-3.1
		c2.1-0.9,5.4-2.6,7.3-1.7c1.8,1,0.5,3.5,0.5,3.5s1.6,0.6,2.1,1.9c0.5,1.3-1.4,3.9-1.4,3.9s1.1,0.3,1.4,2.1c0.3,1.8-2.4,3.5-4.7,4.1
		c-2.3,0.6-8.1,1.4-9.3,1.5C87.7,54.4,85.7,55.2,86.5,56.4z"/>
	<path class="st1" d="M28.3,91.9c1-0.6,1-1.5,0-2.1l-7.6-4.4c-1-0.6-1.8-0.1-1.8,1l0,8.9c0,1.1,0.8,1.6,1.8,1L28.3,91.9z"/>
	<path class="st0" d="M114,9.3c0,1.8-1.5,3.3-3.3,3.3c-1.8,0-3.3-1.5-3.3-3.3c0-1.8,1.5-3.3,3.3-3.3C112.5,6,114,7.5,114,9.3z"/>
	<path class="st2" d="M134.8,15c0,1.9-1.5,3.4-3.4,3.4c-1.9,0-3.4-1.5-3.4-3.4s1.5-3.4,3.4-3.4C133.2,11.6,134.8,13.1,134.8,15z"/>
	<path class="st4" d="M211.9,44.6c0,1.9-1.5,3.4-3.4,3.4s-3.4-1.5-3.4-3.4c0-1.9,1.5-3.4,3.4-3.4S211.9,42.7,211.9,44.6z"/>
	<path class="st8" d="M102.8,9.3c0,1.8-1.5,3.3-3.3,3.3c-1.8,0-3.3-1.5-3.3-3.3c0-1.8,1.5-3.3,3.3-3.3C101.3,6,102.8,7.5,102.8,9.3z
		"/>
	<path class="st1" d="M91.6,9.3c0,1.8-1.5,3.3-3.3,3.3c-1.8,0-3.3-1.5-3.3-3.3C85,7.5,86.5,6,88.3,6C90.1,6,91.6,7.5,91.6,9.3z"/>
	<path class="st3" d="M72,48.4c0,0-2.1,0.4-2.4,2.2c-0.3,1.8,2.9,5.7,3.7,6.1h0.6c0,0-1.6-3.6-1.1-5.6L72,48.4z"/>
	<path class="st3" d="M78.9,60c0,0,2.1,0,3.6,0.6c1.4,0.6,2.1,1,2.1,1S81.6,61.9,78.9,60z"/>
	<path class="st3" d="M87.9,54.5c0,0-1.7,0.6-1.6,1.5c0,0,3,2,3.6,2.7c0.6,0.6,1,1,1,1S91,56.9,87.9,54.5z"/>
	<path class="st0" d="M173.3,29.7c0,1.9-1.6,3.5-3.5,3.5c-1.9,0-3.5-1.6-3.5-3.5c0-1.9,1.6-3.5,3.5-3.5
		C171.8,26.2,173.3,27.8,173.3,29.7z"/>
	<g>
		<g>
			<path class="st3" d="M206.4,110.5c-0.2,0-11.9-6-11.9-6c-2.8-1.4-7.5-1.8-10.4-0.8l-8.8,3c-3.1,1.1-8,0.5-10.8-1.1l-9.4-5.6
				c-0.2-0.1-0.2-0.3-0.1-0.5c0.1-0.2,0.3-0.2,0.5-0.1l9.4,5.6c2.7,1.6,7.3,2.1,10.2,1.1l8.8-3c3.1-1.1,8-0.7,11,0.8l11.7,6
				c0.2,0.1,0.2,0.3,0.1,0.5C206.7,110.4,206.5,110.5,206.4,110.5z"/>
		</g>
		<g>
			<path class="st3" d="M184.1,92.2c-3.9,0-7.1-3.2-7.1-7.1c0-3.9,3.2-7.1,7.1-7.1c3.9,0,7.1,3.2,7.1,7.1
				C191.2,89,188,92.2,184.1,92.2z M184.1,78.7c-3.5,0-6.4,2.9-6.4,6.4c0,3.5,2.9,6.4,6.4,6.4c3.5,0,6.4-2.9,6.4-6.4
				C190.5,81.6,187.6,78.7,184.1,78.7z"/>
		</g>
	</g>
	<g>
		<path class="st3" d="M114.1,68.6c-0.8,0-1.4-0.1-1.5-0.2c-0.2,0-0.3-0.2-0.2-0.4c0-0.2,0.2-0.3,0.4-0.3c0,0,2.2,0.5,3.5-0.4
			c0.6-0.4,1-1.1,1.1-1.9c0-0.2,0.2-0.3,0.4-0.3c0.2,0,0.3,0.2,0.3,0.4c-0.1,1.1-0.6,1.9-1.3,2.4C115.9,68.4,114.9,68.6,114.1,68.6z
			"/>
	</g>
	<g>
		<path class="st3" d="M78.7,109.8c-2.9,0-5.3-0.5-7.6-1.2c-8.4-2.4-13.5-9.6-14.4-20.3c-0.6-7.6,2.2-15.1,5.1-21.5
			c1.1-2.4,1.9-4.4,2.6-6.3c1.4-3.5,2.6-6.6,5.1-10.9c0.1-0.2,0.3-0.2,0.5-0.1c0.2,0.1,0.2,0.3,0.1,0.5c-2.5,4.2-3.7,7.3-5.1,10.8
			c-0.8,1.9-1.6,3.9-2.7,6.3c-2.8,6.2-5.6,13.6-5,21.1c0.8,10.4,5.7,17.4,13.9,19.8c4.5,1.3,9.7,2.1,17.3-0.8c0.2-0.1,0.4,0,0.4,0.2
			c0.1,0.2,0,0.4-0.2,0.4C84.9,109.3,81.6,109.8,78.7,109.8z"/>
	</g>
	<g>
		<path class="st3" d="M77.8,91.6c-0.2,0-0.4-0.2-0.3-0.4c0.7-4.9,2.6-9.2,3.4-11c0.1-0.3,0.2-0.6,0.3-0.7l2.8-7
			c0.7-1.9,1.7-3.6,2.6-5.4l0.3-0.6c0.1-0.2,0.3-0.2,0.5-0.1c0.2,0.1,0.2,0.3,0.1,0.5l-0.3,0.6c-1,1.8-1.9,3.5-2.6,5.3l-2.8,7
			c-0.1,0.2-0.2,0.4-0.3,0.8c-0.9,1.9-2.6,6-3.4,10.8C78.1,91.4,77.9,91.6,77.8,91.6z"/>
	</g>
	<g>
		<g>
			<circle class="st6" cx="4.5" cy="31" r="1.5"/>
			<path class="st6" d="M15.9,32.6c0.9,0,1.5-0.7,1.5-1.5s-0.7-1.5-1.5-1.5s-1.5,0.7-1.5,1.5S15.1,32.6,15.9,32.6z"/>
			<circle class="st6" cx="27.3" cy="31" r="1.4"/>
			<path class="st6" d="M4.5,44c0.8,0,1.5-0.7,1.5-1.5c0-0.8-0.7-1.5-1.5-1.5c-0.9,0-1.5,0.7-1.5,1.5C3,43.3,3.7,44,4.5,44z"/>
			<path class="st6" d="M15.9,44c0.9,0,1.6-0.7,1.6-1.6s-0.7-1.6-1.6-1.6c-0.9,0-1.6,0.7-1.6,1.6S15,44,15.9,44z"/>
			<circle class="st6" cx="27.3" cy="42.4" r="1.5"/>
			<path class="st6" d="M4.5,55.2c0.8,0,1.4-0.6,1.4-1.4c0-0.8-0.6-1.4-1.4-1.4c-0.8,0-1.4,0.6-1.4,1.4C3.1,54.6,3.8,55.2,4.5,55.2z
				"/>
			<path class="st6" d="M15.9,55.3c0.8,0,1.5-0.7,1.5-1.5c0-0.8-0.7-1.5-1.5-1.5c-0.8,0-1.5,0.7-1.5,1.5
				C14.4,54.6,15.1,55.3,15.9,55.3z"/>
			<path class="st6" d="M27.3,55.2c0.8,0,1.4-0.6,1.4-1.4c0-0.8-0.6-1.4-1.4-1.4c-0.8,0-1.4,0.6-1.4,1.4
				C25.9,54.6,26.5,55.2,27.3,55.2z"/>
		</g>
	</g>
	<g>
		<path class="st3" d="M201.3,154H28.5c-0.2,0-0.3-0.1-0.3-0.3c0-0.2,0.2-0.3,0.3-0.3h172.7c0.2,0,0.3,0.2,0.3,0.3
			C201.6,153.8,201.4,154,201.3,154z"/>
	</g>
	<path class="st3" d="M107.4,58.3c0.3,0,0.4,0.1,0.5,1c0.1,1.1-0.2,1.3-0.4,1.3c-0.2,0-0.5-0.3-0.5-1.1
		C107,58.7,107,58.3,107.4,58.3z"/>
	<g>
		<path class="st3" d="M100.8,65.3c-1.3-0.1-2.2-0.5-2.9-1.3c-0.7-0.8-1-1.8-1-2.8c0.1-1,0.5-2,1.3-2.6c0.8-0.7,1.7-1,2.8-1
			c0.4,0,0.8,0.1,1.2,0.3c0.2,0.1,0.3,0.3,0.2,0.4c-0.1,0.2-0.3,0.3-0.4,0.2c-0.3-0.1-0.6-0.2-1-0.2c-0.8-0.1-1.7,0.2-2.3,0.8
			c-0.6,0.6-1,1.3-1.1,2.2c-0.1,0.8,0.2,1.7,0.8,2.3c0.6,0.6,1.3,1,2.2,1.1c0.6,0,1.1-0.1,1.7-0.3c0.2-0.1,0.4,0,0.5,0.1
			c0.1,0.2,0,0.4-0.1,0.5C102,65.2,101.4,65.3,100.8,65.3z"/>
	</g>
	<g>
		<path class="st3" d="M100.1,63.6c-0.4-0.3-0.4-0.5-0.2-0.6l2-1.6l-2.3-1.7c-0.1-0.1-0.2-0.3-0.1-0.5c0.1-0.2,0.3-0.2,0.5-0.1
			l2.6,1.9c0,0.5-2.4,2.4-2.4,2.4C100.2,63.6,100.1,63.6,100.1,63.6z"/>
	</g>
	<g>
		<path class="st3" d="M123.4,65.3c-0.6,0-1.2-0.1-1.8-0.4c-0.2-0.1-0.2-0.3-0.1-0.5c0.1-0.2,0.3-0.2,0.5-0.1
			c0.5,0.3,1.1,0.4,1.7,0.3c0.8-0.1,1.6-0.4,2.2-1.1c0.6-0.6,0.8-1.4,0.8-2.3c-0.1-1.7-1.6-3.1-3.4-3c-0.4,0-0.7,0.1-1,0.2
			c-0.2,0.1-0.4,0-0.4-0.2c-0.1-0.2,0-0.4,0.2-0.4c0.4-0.2,0.8-0.3,1.3-0.3c2.1-0.1,3.9,1.5,4.1,3.6c0.1,2.1-1.5,3.9-3.6,4.1
			C123.6,65.3,123.5,65.3,123.4,65.3z"/>
	</g>
	<g>
		<path class="st3" d="M124.2,63.6c-0.2-0.1-2.6-1.9-2.6-1.9c0-0.5,2.6-2.5,2.6-2.5c0.2-0.1,0.4-0.1,0.5,0.1
			c0.1,0.1,0.1,0.4-0.1,0.5l-2.3,1.7l2,1.6c0.1,0.1,0.2,0.3,0.1,0.5C124.4,63.5,124.3,63.6,124.2,63.6z"/>
	</g>
	<g>
		<path class="st3" d="M147.4,141.7c-4.2,0-8.8-2.1-11.8-9.5c-0.1-0.2,0-0.4,0.2-0.4c0.2-0.1,0.4,0,0.4,0.2
			c3.1,7.6,8.2,10.5,15.2,8.5c11.8-3.4,8.5-18.3,7.5-23.2c-1.6-7.2-5.8-24.9-5.8-25.1c0-0.2,0.1-0.4,0.3-0.4c0.2,0,0.4,0.1,0.4,0.2
			c0,0.2,4.3,17.9,5.8,25.1c1.1,5.1,4.4,20.5-7.9,24C150.3,141.5,148.9,141.7,147.4,141.7z"/>
	</g>
	<g>
		<path class="st3" d="M112.8,74.2h-1.3c-1.7,0-4.1-0.3-6-2c-1.5-1.3-2.5-3.3-3-6.2c-0.4-1.9-0.4-8-0.4-10c0-0.2,0.2-0.3,0.3-0.3
			c0.2,0,0.3,0.2,0.3,0.3c0,2.1,0.1,8.1,0.4,9.9c0.5,2.8,1.4,4.7,2.8,5.8c1.8,1.5,4,1.8,5.6,1.8h1.3c1.6,0,3.8-0.3,5.6-1.8
			c1.4-1.2,2.3-3.1,2.8-5.8c0.4-1.9,0.4-6.7,0.3-8.4c0-0.2,0.1-0.3,0.3-0.3c0.2,0,0.3,0.1,0.3,0.3c0,1.7,0,6.6-0.3,8.6
			c-0.5,2.9-1.5,5-3,6.2C116.9,73.8,114.5,74.2,112.8,74.2z"/>
	</g>
	<g>
		<path class="st3" d="M105.4,73.1c-0.2,0-0.3-0.2-0.3-0.3l0-1.1c0-0.2,0.2-0.3,0.3-0.3c0.2,0,0.3,0.2,0.3,0.3l0,1.1
			C105.7,73,105.6,73.1,105.4,73.1z"/>
	</g>
	<g>
		<path class="st3" d="M118.8,73c-0.2,0-0.3-0.2-0.3-0.3l0-1c0-0.2,0.1-0.3,0.3-0.3c0.2,0,0.3,0.2,0.3,0.3l0,1
			C119.2,72.9,119,73,118.8,73z"/>
	</g>
	<g>
		<path class="st3" d="M123.2,58.3c-0.2,0-0.4-0.2-0.3-0.4c0.7-4.8,0-7.7-0.8-10c-1.7-4.7-8.6-5.8-13-5c-3.3,0.6-5.2,3.3-5.2,3.3
			c-0.8,0.3-1.4,0.5-1.8,0.9c-0.1,0.1-0.4,0.1-0.5,0c-0.1-0.1-0.1-0.4,0-0.5c0.5-0.4,1.1-0.7,1.8-0.9c0.4-0.5,2.3-2.9,5.6-3.5
			c4.6-0.8,11.9,0.3,13.7,5.4c0.8,2.3,1.6,5.4,0.8,10.3C123.5,58.2,123.4,58.3,123.2,58.3z"/>
	</g>
	<g>
		<path class="st3" d="M101,58.3c-0.4-0.4-1.1-3.2-1.1-6.2c0-0.2,0.2-0.3,0.3-0.3c0.2,0,0.3,0.2,0.3,0.3c0,2.9,0.8,5.7,0.8,5.7
			C101.3,58.1,101.2,58.2,101,58.3C101,58.3,101,58.3,101,58.3z"/>
	</g>
	<g>
		<path class="st3" d="M83.6,153.8c-0.2,0-0.4-0.2-0.3-0.4l0.6-6c0-0.2,0.2-0.3,0.4-0.3c0.2,0,0.3,0.2,0.3,0.4l-0.6,6
			C83.9,153.6,83.7,153.8,83.6,153.8z"/>
	</g>
	<g>
		<path class="st3" d="M87.7,115.9c-0.2,0-0.4-0.2-0.3-0.4l2.2-17.1c0-0.2,0.2-0.3,0.4-0.3c0.2,0,0.3,0.2,0.3,0.4L88,115.6
			C88,115.8,87.8,115.9,87.7,115.9z"/>
	</g>
	<g>
		<path class="st3" d="M138.1,153.8c-0.2,0-0.3-0.1-0.3-0.3c-2.3-24.3-4-38.7-5.1-46.6c0-0.2,0.1-0.4,0.3-0.4c0.2,0,0.4,0.1,0.4,0.3
			c1.1,7.9,2.8,22.3,5.1,46.6C138.4,153.6,138.3,153.7,138.1,153.8C138.1,153.8,138.1,153.8,138.1,153.8z"/>
	</g>
	<g>
		<path class="st3" d="M105.1,57.2c-0.3-0.1-0.4-0.3-0.3-0.5c0.6-1.7,2.9-2.1,4.3-1.8c0.2,0,0.3,0.2,0.3,0.4c0,0.2-0.2,0.3-0.4,0.3
			c-1.1-0.2-3,0.2-3.5,1.4C105.3,57.1,105.2,57.2,105.1,57.2z"/>
	</g>
	<g>
		<path class="st3" d="M118.6,57.2c-0.8-1.5-2.7-1.9-3.8-1.6c-0.2,0-0.4-0.1-0.4-0.3c0-0.2,0.1-0.4,0.3-0.4c1.4-0.3,3.7,0.2,4.3,1.8
			c0.1,0.2,0,0.4-0.2,0.4C118.6,57.2,118.6,57.2,118.6,57.2z"/>
	</g>
	<g>
		<path class="st3" d="M104.9,48.2c-0.3-0.1-1.4-1.7-1.4-1.7c-0.1-0.2-0.1-0.4,0.1-0.5c0.2-0.1,0.4-0.1,0.5,0.1l1.1,1.5
			c0.1,0.2,0.1,0.4-0.1,0.5C105,48.2,105,48.2,104.9,48.2z"/>
	</g>
	<g>
		<path class="st3" d="M141.5,87.1c-6.5-7.5-13-9-18-9.4c-0.2,0-0.3-0.2-0.3-0.4c0-0.2,0.2-0.3,0.4-0.3c5.1,0.4,11.8,1.9,18.2,9.5
			c0.1,0.1,0.1,0.4,0,0.5C141.6,87.1,141.5,87.1,141.5,87.1z"/>
	</g>
	<g>
		<path class="st3" d="M18.5,95.3v-8.9c0-0.7,0.2-1.2,0.7-1.5c0.5-0.3,1-0.2,1.6,0.1l7.6,4.5c1.2,0.7,1.2,2,0,2.7l-7.6,4.5
			c-0.6,0.3-1.2,0.4-1.6,0.1C18.8,96.5,18.5,96,18.5,95.3z M28.7,90.8c0-0.3-0.2-0.5-0.6-0.8l-7.6-4.4c-0.4-0.2-0.7-0.3-0.9-0.1
			c-0.2,0.1-0.4,0.5-0.4,0.9v8.9c0,0.4,0.1,0.7,0.4,0.9c0.2,0.1,0.6,0.1,0.9-0.1l7.6-4.5C28.5,91.4,28.7,91.1,28.7,90.8z"/>
	</g>
	<g>
		<path class="st3" d="M131.4,103.5c-1,0-1.9-0.2-2.5-0.5c-0.6-0.4-1-0.9-1.2-1.5c-0.6-2.3,2.2-3.8,2.4-3.9c0.2-0.1,0.4,0,0.5,0.1
			c0.1,0.2,0,0.4-0.1,0.5c0,0-2.5,1.4-2,3.1c0.1,0.5,0.4,0.9,0.9,1.1c1.1,0.6,3.1,0.6,5.7-0.1c3.6-1,10.1-4.3,10.1-4.3
			c0.2-0.1,0.4,0,0.5,0.1c0.1,0.2,0,0.4-0.1,0.5c-0.3,0.1-6.6,3.3-10.2,4.3C133.8,103.3,132.5,103.5,131.4,103.5z"/>
	</g>
	<g>
		<path class="st3" d="M134,106.9c-1.2,0-2.1-0.2-2.6-0.7c-1.9-1.6-0.9-3.2-0.9-3.2c0.1-0.2,0.3-0.2,0.5-0.1
			c0.2,0.1,0.2,0.3,0.1,0.5c0,0.1-0.7,1.1,0.8,2.3c1.5,1.3,7.6,0.1,12.7-2.5c2.7-1.4,5-3.2,6.7-5.2c1.7-1.9,2.3-4.6,1.8-7.6
			c-0.4-2.7-1.6-5.2-3.4-7.2c-0.2-0.2-0.3-0.4-0.5-0.6c-0.8-0.9-1.6-1.8-1.7-3.2c0-0.6-0.1-1.2-0.1-1.9c-0.1-2.6-0.2-5.6-1.9-6
			c-1.2-0.3-2.2-0.1-2.9,0.7c-1.3,1.3-1.5,4-0.6,7.4c0.3,1.2,0.7,2.3,1,3.5l0.4,1.3c0.1,0.3,0.2,0.7,0,1.1c-0.1,0.3-0.3,0.5-0.5,0.6
			c-2.2,1.9-4.8,3.3-7.5,4.3c-3.8,1.3-6,2.7-6.6,4.2c-0.3,0.6-0.2,1.3,0.1,2c0.2,0.3,0.5,0.6,1,0.7c2.3,0.7,8-0.3,14.1-3.7
			c0.2-0.1,0.4,0,0.5,0.1c0.1,0.2,0,0.4-0.1,0.5c-5.6,3.1-11.7,4.6-14.6,3.7c-0.7-0.2-1.2-0.6-1.4-1.1c-0.4-0.9-0.5-1.7-0.1-2.6
			c0.7-1.7,3-3.2,7-4.6c2.7-0.9,5.2-2.3,7.3-4.1c0.1-0.1,0.3-0.2,0.3-0.4c0.1-0.2,0-0.4-0.1-0.7l-0.4-1.3c-0.3-1.2-0.7-2.3-1-3.5
			c-1-3.6-0.7-6.6,0.8-8.1c0.9-0.9,2.1-1.2,3.5-0.9c2.3,0.6,2.4,3.8,2.5,6.6c0,0.7,0,1.3,0.1,1.9c0.1,1.1,0.8,1.9,1.5,2.8
			c0.2,0.2,0.3,0.4,0.5,0.6c1.8,2.2,3.1,4.8,3.5,7.6c0.5,3.2-0.2,6.1-2,8.1c-1.8,2.1-4.1,3.9-6.9,5.3
			C141.2,105.5,136.9,106.9,134,106.9z"/>
	</g>
	<g>
		<path class="st3" d="M102.6,66.8H91.8c-0.2,0-0.3-0.2-0.3-0.3c0-0.2,0.1-0.3,0.3-0.3h10.8c0.2,0,0.3,0.1,0.3,0.3
			C103,66.7,102.8,66.8,102.6,66.8z"/>
	</g>
	<g>
		<path class="st3" d="M121.2,42.3c-0.2,0-0.3-0.2-0.3-0.3V10.7c0-5-4-9-9-9H36.6c-5,0-9,4-9,9v14.6c0,0.2-0.1,0.3-0.3,0.3
			c-0.2,0-0.3-0.2-0.3-0.3V10.7c0-5.3,4.3-9.7,9.6-9.7h75.3c5.3,0,9.6,4.3,9.6,9.7V42C121.5,42.2,121.3,42.3,121.2,42.3z"/>
	</g>
	<g>
		<path class="st3" d="M53.2,66.8H36.6c-5.3,0-9.6-4.3-9.6-9.6c0-0.2,0.2-0.3,0.3-0.3c0.2,0,0.3,0.2,0.3,0.3c0,5,4,9,9,9h16.6
			c0.2,0,0.3,0.1,0.3,0.3C53.5,66.7,53.4,66.8,53.2,66.8z"/>
	</g>
	<g>
		<path class="st3" d="M198.4,129.4h-37.6c-0.2,0-0.3-0.2-0.3-0.3c0-0.2,0.1-0.3,0.3-0.3h37.6c4.3,0,7.7-3.5,7.7-7.7V92.8
			c0-0.2,0.1-0.3,0.3-0.3c0.2,0,0.3,0.1,0.3,0.3V121C206.8,125.6,203,129.4,198.4,129.4z"/>
	</g>
	<g>
		<path class="st3" d="M206.4,79.2c-0.2,0-0.3-0.1-0.3-0.3v-3c0-4.3-3.5-7.7-7.7-7.7h-60.3c-4.3,0-7.7,3.5-7.7,7.7v2.8
			c0,0.2-0.1,0.3-0.3,0.3c-0.2,0-0.3-0.1-0.3-0.3v-2.8c0-4.6,3.8-8.4,8.4-8.4h60.3c4.6,0,8.4,3.8,8.4,8.4v3
			C206.8,79.1,206.6,79.2,206.4,79.2z"/>
	</g>
	<g>
		<path class="st3" d="M110.3,147.9H24.5c-4.6,0-8.4-3.8-8.4-8.4V124c0-4.6,3.8-8.4,8.4-8.4h26.6c0.2,0,0.3,0.2,0.3,0.3
			c0,0.2-0.2,0.3-0.3,0.3H24.5c-4.3,0-7.7,3.5-7.7,7.7v15.5c0,4.3,3.5,7.7,7.7,7.7h85.8c4.3,0,7.7-3.5,7.7-7.7V124
			c0-4.3-3.5-7.7-7.7-7.7H75.8c-0.2,0-0.3-0.1-0.3-0.3c0-0.2,0.2-0.3,0.3-0.3h34.5c4.6,0,8.4,3.8,8.4,8.4v15.5
			C118.7,144.1,114.9,147.9,110.3,147.9z"/>
	</g>
	<g>
		<path class="st3" d="M72.7,51.1c-0.4-0.4-2.1-5.5,1.2-8.1c1.9-1.5,4.1-1.4,6.5-1.3c1.9,0.1,4,0.1,6.3-0.6c1.7-0.5,3.6-1.3,5.3-2.1
			c3.7-1.6,6.8-3,8.6-1.8c0.8,0.6,1.1,1.6,0.7,2.9c-0.9,3.1-5.4,6.6-13.1,6.8c-0.2,0-0.3-0.1-0.3-0.3c0-0.2,0.1-0.3,0.3-0.3
			c8.5-0.3,11.9-4.2,12.5-6.3c0.3-1,0.1-1.7-0.5-2.1c-1.5-1-4.6,0.4-7.9,1.9c-1.8,0.8-3.6,1.6-5.4,2.2c-2.4,0.7-4.6,0.7-6.5,0.6
			c-2.4-0.1-4.4-0.1-6.1,1.2c-3,2.3-1.3,7.1-1.3,7.1c0.1,0.2,0,0.4-0.2,0.4C72.8,51.1,72.7,51.1,72.7,51.1z"/>
	</g>
	<g>
		<path class="st3" d="M90.7,49.9c-0.7,0-1.5,0-2.2-0.1c-0.2,0-0.3-0.2-0.3-0.4c0-0.2,0.1-0.3,0.4-0.3c6.8,0.5,12.8-1.5,13.9-4.6
			c0.3-0.9,0.3-1.7,0-2.2c-0.6-0.8-1.8-0.9-1.8-0.9c-0.2,0-0.3-0.2-0.3-0.4c0-0.2,0.2-0.3,0.4-0.3c0.1,0,1.6,0.1,2.3,1.2
			c0.5,0.7,0.5,1.6,0.1,2.8C101.9,47.8,96.9,49.9,90.7,49.9z"/>
	</g>
	<g>
		<path class="st3" d="M80.4,54.4c-0.2,0-0.3-0.1-0.3-0.3c0-0.2,0.1-0.3,0.3-0.4c5.9-0.3,6.7-6.1,6.7-6.2c0-0.2,0.2-0.3,0.4-0.3
			c0.2,0,0.3,0.2,0.3,0.4C87.7,47.6,86.9,54,80.4,54.4C80.4,54.4,80.4,54.4,80.4,54.4z"/>
	</g>
	<g>
		<path class="st3" d="M89.5,68.2c-0.3,0-0.5,0-0.8-0.1c-2-0.7-3.3-3.8-3.7-5.1c-0.4-1.1-1.9-1.7-2.9-2c-0.9-0.4-1.9-0.6-2.9-0.8
			c-0.6-0.1-1.2-0.3-1.7-0.4c-1.9-0.5-3.3-1.7-4.1-3.4c-0.8-1.6-1.1-3.5-1-5.6c0-0.2,0.2-0.3,0.4-0.3c0.2,0,0.3,0.2,0.3,0.4
			c-0.1,1.9,0.2,3.7,0.9,5.2c0.8,1.6,2,2.6,3.7,3c0.6,0.2,1.1,0.3,1.7,0.4c1,0.2,2,0.4,3,0.8c1,0.4,2.8,1,3.3,2.4
			c0.3,1,1.5,4.1,3.3,4.7c0.6,0.2,1.2,0.1,1.8-0.3c1-0.7,1.3-1.8,1.3-2.6c0.1-1.9-1-4.3-2.6-5.7c-0.9-0.8-2-1.5-2.9-2
			c-0.2-0.1-0.5-0.3-0.6-0.6c-0.1-0.2,0-0.5,0.1-0.6c0.2-0.6,0.8-1.1,1.4-1.3c0.5-0.1,0.9-0.2,1.4-0.2c2.5-0.1,4.7-0.4,6.8-0.9
			c1.7-0.4,3.6-0.9,5.3-1.9c0.6-0.4,1.3-0.9,1.5-1.7c0.6-1.8-1.2-2.6-1.3-2.6c-0.2-0.1-0.3-0.3-0.2-0.4c0.1-0.2,0.3-0.2,0.4-0.2
			c0.8,0.3,2.3,1.5,1.7,3.5c-0.3,1-1.2,1.6-1.8,2c-1.7,1.1-3.7,1.6-5.5,2c-2.1,0.5-4.4,0.8-6.8,0.9c-0.5,0-0.9,0-1.3,0.2
			c-0.5,0.1-0.8,0.5-1,0.9c1.2,0.9,2.3,1.7,3.3,2.5c1.8,1.5,3,4.1,2.8,6.2c-0.1,1.3-0.6,2.4-1.6,3.1C90.6,68,90,68.2,89.5,68.2z"/>
	</g>
	<g>
		<path class="st3" d="M28.8,100.9h-9.7c-3.4,0-6.2-2.8-6.2-6.2v-7.2c0-3.4,2.8-6.2,6.2-6.2h9.7c3.4,0,6.2,2.8,6.2,6.2v7.2
			C35,98.1,32.2,100.9,28.8,100.9z M19.1,82c-3,0-5.5,2.5-5.5,5.5v7.2c0,3,2.5,5.5,5.5,5.5h9.7c3,0,5.5-2.5,5.5-5.5v-7.2
			c0-3-2.5-5.5-5.5-5.5H19.1z"/>
	</g>
	<g>
		<path class="st3" d="M174.8,37.5h-9.8c-1.6,0-2.9-1.3-2.9-2.9v-9.8c0-1.6,1.3-2.9,2.9-2.9h9.8c1.6,0,2.9,1.3,2.9,2.9v9.8
			C177.7,36.2,176.4,37.5,174.8,37.5z M165.1,22.7c-1.2,0-2.2,1-2.2,2.2v9.8c0,1.2,1,2.2,2.2,2.2h9.8c1.2,0,2.2-1,2.2-2.2v-9.8
			c0-1.2-1-2.2-2.2-2.2H165.1z"/>
	</g>
	<g>
		<path class="st3" d="M168.4,22.3c-2.1-5.4-5.2-9-9.4-10.9c-5.9-2.6-14-1.8-24.1,2.4c-0.2,0.1-0.4,0-0.4-0.2
			c-0.1-0.2,0-0.4,0.2-0.4c10.2-4.3,18.5-5.1,24.6-2.4c4.4,1.9,7.6,5.8,9.5,11.1c0.1,0.2,0,0.4-0.2,0.4
			C168.5,22.3,168.5,22.3,168.4,22.3z"/>
	</g>
	<g>
		<path class="st3" d="M131.4,18.7c-2.1,0-3.8-1.7-3.8-3.8c0-2.1,1.7-3.8,3.8-3.8c2.1,0,3.8,1.7,3.8,3.8
			C135.1,17,133.4,18.7,131.4,18.7z M131.4,11.9c-1.7,0-3.1,1.4-3.1,3.1c0,1.7,1.4,3.1,3.1,3.1c1.7,0,3.1-1.4,3.1-3.1
			C134.4,13.3,133.1,11.9,131.4,11.9z"/>
	</g>
	<g>
		<path class="st3" d="M169.9,33.5c-2.1,0-3.8-1.7-3.8-3.8c0-2.1,1.7-3.8,3.8-3.8c2.1,0,3.8,1.7,3.8,3.8
			C173.7,31.8,172,33.5,169.9,33.5z M169.9,26.7c-1.7,0-3.1,1.4-3.1,3.1c0,1.7,1.4,3.1,3.1,3.1c1.7,0,3.1-1.4,3.1-3.1
			C173,28.1,171.6,26.7,169.9,26.7z"/>
	</g>
	<g>
		<path class="st3" d="M188.6,50.3c-3,0-5.7-0.5-8-1.6c-4.4-1.9-7.7-5.8-9.5-11.1c-0.1-0.2,0-0.4,0.2-0.4c0.2-0.1,0.4,0,0.4,0.2
			c1.8,5.2,4.9,8.8,9.1,10.7c5.9,2.6,14.1,1.8,24.1-2.4c0.2-0.1,0.4,0,0.4,0.2c0.1,0.2,0,0.4-0.2,0.4
			C199,48.9,193.4,50.3,188.6,50.3z"/>
	</g>
	<g>
		<path class="st3" d="M208.5,48.3c-2.1,0-3.8-1.7-3.8-3.8c0-2.1,1.7-3.7,3.8-3.7c2.1,0,3.8,1.7,3.8,3.7
			C212.3,46.7,210.6,48.3,208.5,48.3z M208.5,41.5c-1.7,0-3.1,1.4-3.1,3.1c0,1.7,1.4,3.1,3.1,3.1c1.7,0,3.1-1.4,3.1-3.1
			C211.6,42.9,210.2,41.5,208.5,41.5z"/>
	</g>
	<g>
		<path class="st3" d="M97.4,127.8H48.1c-0.2,0-0.3-0.2-0.3-0.3c0-0.2,0.2-0.3,0.3-0.3h49.4c0.2,0,0.3,0.1,0.3,0.3
			C97.8,127.7,97.6,127.8,97.4,127.8z"/>
	</g>
	<g>
		<path class="st3" d="M97.4,136.1H48.1c-0.2,0-0.3-0.1-0.3-0.3c0-0.2,0.2-0.3,0.3-0.3h49.4c0.2,0,0.3,0.2,0.3,0.3
			C97.8,136,97.6,136.1,97.4,136.1z"/>
	</g>
	<g>
		<path class="st3" d="M30.9,137.5c-3.2,0-5.8-2.6-5.8-5.8c0-3.2,2.6-5.8,5.8-5.8c3.2,0,5.8,2.6,5.8,5.8
			C36.7,134.9,34.1,137.5,30.9,137.5z M30.9,126.7c-2.8,0-5.1,2.3-5.1,5.1c0,2.8,2.3,5.1,5.1,5.1c2.8,0,5.1-2.3,5.1-5.1
			C36,128.9,33.7,126.7,30.9,126.7z"/>
	</g>
	<g>
		<path class="st3" d="M116,17.3H32.4c-0.2,0-0.3-0.1-0.3-0.3c0-0.2,0.2-0.3,0.3-0.3H116c0.2,0,0.3,0.2,0.3,0.3
			C116.3,17.1,116.2,17.3,116,17.3z"/>
	</g>
	<g>
		<path class="st3" d="M110.7,12.9c-2,0-3.6-1.6-3.6-3.6c0-2,1.6-3.6,3.6-3.6c2,0,3.6,1.6,3.6,3.6C114.3,11.3,112.7,12.9,110.7,12.9
			z M110.7,6.3c-1.6,0-3,1.3-3,3c0,1.6,1.3,3,3,3c1.6,0,3-1.3,3-3C113.6,7.6,112.3,6.3,110.7,6.3z"/>
	</g>
	<g>
		<path class="st1" d="M102.8,9.3c0,1.8-1.5,3.3-3.3,3.3c-1.8,0-3.3-1.5-3.3-3.3c0-1.8,1.5-3.3,3.3-3.3C101.3,6,102.8,7.5,102.8,9.3
			z"/>
		<g>
			<path class="st3" d="M99.5,12.9c-2,0-3.6-1.6-3.6-3.6c0-2,1.6-3.6,3.6-3.6c2,0,3.6,1.6,3.6,3.6C103.1,11.3,101.5,12.9,99.5,12.9z
				 M99.5,6.3c-1.6,0-3,1.3-3,3c0,1.6,1.3,3,3,3c1.6,0,3-1.3,3-3C102.5,7.6,101.1,6.3,99.5,6.3z"/>
		</g>
	</g>
	<g>
		<path class="st3" d="M88.3,12.9c-2,0-3.6-1.6-3.6-3.6c0-2,1.6-3.6,3.6-3.6c2,0,3.6,1.6,3.6,3.6C92,11.3,90.3,12.9,88.3,12.9z
			 M88.3,6.3c-1.6,0-3,1.3-3,3c0,1.6,1.3,3,3,3c1.6,0,3-1.3,3-3C91.3,7.6,90,6.3,88.3,6.3z"/>
	</g>
	<g>
		<path class="st3" d="M78.9,86.6c-0.4-0.3-0.3-0.5-0.2-0.6c0.1-0.1,10.1-6.3,21.7-8.5c0.2,0,0.4,0.1,0.4,0.3c0,0.2-0.1,0.4-0.3,0.4
			c-11.4,2.2-21.3,8.4-21.4,8.4C79,86.6,79,86.6,78.9,86.6z"/>
	</g>
	<g>
		<path class="st3" d="M127.3,96h-3.5c-0.2,0-0.3-0.1-0.3-0.3c0-0.2,0.2-0.3,0.3-0.3h3.5c0.2,0,0.3,0.2,0.3,0.3
			C127.7,95.8,127.5,96,127.3,96z M120.3,96h-3.5c-0.2,0-0.3-0.1-0.3-0.3c0-0.2,0.2-0.3,0.3-0.3h3.5c0.2,0,0.3,0.2,0.3,0.3
			C120.7,95.8,120.5,96,120.3,96z M113.3,96h-3.5c-0.2,0-0.3-0.1-0.3-0.3c0-0.2,0.1-0.3,0.3-0.3h3.5c0.2,0,0.3,0.2,0.3,0.3
			C113.7,95.8,113.5,96,113.3,96z M106.3,96h-3.5c-0.2,0-0.3-0.1-0.3-0.3c0-0.2,0.2-0.3,0.3-0.3h3.5c0.2,0,0.3,0.2,0.3,0.3
			C106.7,95.8,106.5,96,106.3,96z M99.3,96h-3.5c-0.2,0-0.3-0.1-0.3-0.3c0-0.2,0.2-0.3,0.3-0.3h3.5c0.2,0,0.3,0.2,0.3,0.3
			C99.7,95.8,99.5,96,99.3,96z M92.3,96h-3.5c-0.2,0-0.3-0.1-0.3-0.3c0-0.2,0.1-0.3,0.3-0.3h3.5c0.2,0,0.3,0.2,0.3,0.3
			C92.7,95.8,92.5,96,92.3,96z M85.3,96h-3.5c-0.2,0-0.3-0.1-0.3-0.3c0-0.2,0.2-0.3,0.3-0.3h3.5c0.2,0,0.3,0.2,0.3,0.3
			C85.7,95.8,85.5,96,85.3,96z M79.4,94.9c-0.2,0-0.3-0.2-0.3-0.3V91c0-0.2,0.1-0.3,0.3-0.3c0.2,0,0.3,0.1,0.3,0.3v3.5
			C79.8,94.7,79.6,94.9,79.4,94.9z M79.4,87.9c-0.2,0-0.3-0.2-0.3-0.3V84c0-0.2,0.1-0.3,0.3-0.3c0.2,0,0.3,0.1,0.3,0.3v3.5
			C79.8,87.7,79.6,87.9,79.4,87.9z M79.4,80.9c-0.2,0-0.3-0.1-0.3-0.3V77c0-0.2,0.1-0.3,0.3-0.3c0.2,0,0.3,0.2,0.3,0.3v3.5
			C79.8,80.7,79.6,80.9,79.4,80.9z M79.4,73.9c-0.2,0-0.3-0.2-0.3-0.3V70c0-0.2,0.1-0.3,0.3-0.3c0.2,0,0.3,0.1,0.3,0.3v3.5
			C79.8,73.7,79.6,73.9,79.4,73.9z M144,68.1c-0.2,0-0.3-0.2-0.3-0.3v-3.5c0-0.2,0.2-0.3,0.3-0.3c0.2,0,0.3,0.1,0.3,0.3v3.5
			C144.4,68,144.2,68.1,144,68.1z M79.4,66.9c-0.2,0-0.3-0.2-0.3-0.3V63c0-0.2,0.1-0.3,0.3-0.3c0.2,0,0.3,0.1,0.3,0.3v3.5
			C79.8,66.7,79.6,66.9,79.4,66.9z M144,61.1c-0.2,0-0.3-0.1-0.3-0.3v-3.5c0-0.2,0.2-0.3,0.3-0.3c0.2,0,0.3,0.2,0.3,0.3v3.5
			C144.4,61,144.2,61.1,144,61.1z M79.4,59.9c-0.2,0-0.3-0.1-0.3-0.3V56c0-0.2,0.1-0.3,0.3-0.3c0.2,0,0.3,0.2,0.3,0.3v3.5
			C79.8,59.7,79.6,59.9,79.4,59.9z M144,54.1c-0.2,0-0.3-0.1-0.3-0.3v-3.5c0-0.2,0.2-0.3,0.3-0.3c0.2,0,0.3,0.2,0.3,0.3v3.5
			C144.4,54,144.2,54.1,144,54.1z M79.4,52.9c-0.2,0-0.3-0.2-0.3-0.3V49c0-0.2,0.1-0.3,0.3-0.3c0.2,0,0.3,0.2,0.3,0.3v3.5
			C79.8,52.7,79.6,52.9,79.4,52.9z M144,47.1c-0.2,0-0.3-0.2-0.3-0.3v-1.2h-1.6c-0.2,0-0.3-0.2-0.3-0.3c0-0.2,0.2-0.3,0.3-0.3h1.9
			c0.2,0,0.3,0.1,0.3,0.3v1.6C144.4,47,144.2,47.1,144,47.1z M79.4,45.9c-0.2,0-0.3-0.2-0.3-0.3c0-0.5,0.1-0.7,0.3-0.7h3.2
			c0.2,0,0.3,0.1,0.3,0.3c0,0.2-0.2,0.3-0.3,0.3l-2.8,0C79.8,45.7,79.6,45.9,79.4,45.9z M138.6,45.5h-3.5c-0.2,0-0.3-0.2-0.3-0.3
			c0-0.2,0.2-0.3,0.3-0.3h3.5c0.2,0,0.3,0.1,0.3,0.3C138.9,45.4,138.8,45.5,138.6,45.5z M131.6,45.5h-3.5c-0.2,0-0.3-0.2-0.3-0.3
			c0-0.2,0.1-0.3,0.3-0.3h3.5c0.2,0,0.3,0.1,0.3,0.3C131.9,45.4,131.8,45.5,131.6,45.5z M124.6,45.5h-3.5c-0.2,0-0.3-0.2-0.3-0.3
			c0-0.2,0.2-0.3,0.3-0.3h3.5c0.2,0,0.3,0.1,0.3,0.3C124.9,45.4,124.8,45.5,124.6,45.5z M117.6,45.5h-3.5c-0.2,0-0.3-0.2-0.3-0.3
			c0-0.2,0.2-0.3,0.3-0.3h3.5c0.2,0,0.3,0.1,0.3,0.3C117.9,45.4,117.8,45.5,117.6,45.5z M110.6,45.5h-3.5c-0.2,0-0.3-0.2-0.3-0.3
			c0-0.2,0.1-0.3,0.3-0.3h3.5c0.2,0,0.3,0.1,0.3,0.3C110.9,45.4,110.8,45.5,110.6,45.5z M103.6,45.5h-3.5c-0.2,0-0.3-0.2-0.3-0.3
			c0-0.2,0.1-0.3,0.3-0.3h3.5c0.2,0,0.3,0.1,0.3,0.3C103.9,45.4,103.8,45.5,103.6,45.5z M96.6,45.5h-3.5c-0.2,0-0.3-0.2-0.3-0.3
			c0-0.2,0.2-0.3,0.3-0.3h3.5c0.2,0,0.3,0.1,0.3,0.3C96.9,45.4,96.8,45.5,96.6,45.5z M89.6,45.5h-3.5c-0.2,0-0.3-0.2-0.3-0.3
			c0-0.2,0.2-0.3,0.3-0.3h3.5c0.2,0,0.3,0.1,0.3,0.3C89.9,45.4,89.8,45.5,89.6,45.5z"/>
	</g>
	<g>
		<path class="st3" d="M121.8,57.7c-6.7-6.1-14.2-7.6-15.7-7.8c-0.4,1-1.7,4.6-3.5,6.3c-0.1,0.1-0.3,0.1-0.5,0
			c-0.1-0.1-0.1-0.3,0-0.5c2-1.8,3.4-6.2,3.4-6.2c0.4-0.2,9.1,0.8,16.5,7.7c0.1,0.1,0.1,0.3,0,0.5C122,57.7,121.9,57.7,121.8,57.7z"
			/>
	</g>
	<g>
		<path class="st3" d="M111.8,65.5c-1.2,0-2.4-0.7-2.9-1.3c-0.3-0.4-0.3-0.8-0.2-1c0.1-0.4,0.4-0.8,0.7-1.3c0.8-1.3,1.8-3,2-5.7
			c0-0.2,0.1-0.3,0.4-0.3c0.2,0,0.3,0.2,0.3,0.4c-0.2,2.9-1.4,4.8-2.1,6c-0.3,0.5-0.5,0.9-0.6,1.2c0.5,0.9,1.7,1.5,2.6,1.5
			c0.2,0,0.3,0.1,0.4,0.3c0,0.2-0.1,0.3-0.3,0.4C112,65.5,111.9,65.5,111.8,65.5z"/>
	</g>
	<g>
		<path class="st3" d="M112.1,112.3c-0.2,0-0.3-0.1-0.3-0.3V87.4c0-0.2,0.2-0.3,0.3-0.3c0.2,0,0.3,0.1,0.3,0.3V112
			C112.4,112.1,112.3,112.3,112.1,112.3z"/>
	</g>
	<g>
		<path class="st3" d="M74.4,57.8c-4-3-5.8-6.1-4.8-8.2c0.5-0.9,1.3-1.4,2.6-1.6c0.2,0,0.4,0.1,0.4,0.3c0,0.2-0.1,0.4-0.3,0.4
			c-1.1,0.2-1.7,0.5-2.1,1.3c-0.9,1.7,0.9,4.6,4.4,7.2c0.1,0.1,0.2,0.3,0.1,0.5C74.6,57.7,74.5,57.8,74.4,57.8z"/>
	</g>
	<g>
		<path class="st3" d="M84.8,62.4c-2.2-0.3-4.5-1.1-7.1-2.5c-0.2-0.1-0.3-0.2-0.5-0.3c-0.2-0.1-0.2-0.3-0.1-0.5
			c0.1-0.2,0.3-0.2,0.5-0.1c0.2,0.1,0.3,0.2,0.5,0.2c2.5,1.3,4.8,2.1,6.9,2.4c0.2,0,0.3,0.2,0.3,0.4C85.1,62.3,85,62.4,84.8,62.4z"
			/>
	</g>
	<g>
		<path class="st3" d="M90.7,60c-0.2,0-0.4-0.2-0.3-0.4c0.1-1.3-0.8-3.1-2.7-4.9c-0.1-0.1-0.1-0.3,0-0.5c0.1-0.1,0.3-0.1,0.5,0
			c2.1,2,3.1,3.9,3,5.5C91,59.9,90.9,60,90.7,60z"/>
	</g>
	<g>
		<path class="st3" d="M115.3,68.1c-0.4-0.6-1-3.4,0.6-3.8c0.7-0.2,1.1,0.1,1.3,0.3c0.6,0.6,0.6,1.6,0.4,2.4c0,0.2-0.2,0.3-0.4,0.3
			c-0.2,0-0.3-0.2-0.3-0.4c0.1-0.6,0.1-1.5-0.2-1.8c-0.1-0.1-0.2-0.2-0.7-0.1c-0.7,0.2-0.6,1.9-0.4,2.8
			C115.6,67.8,115.5,68,115.3,68.1C115.3,68.1,115.3,68.1,115.3,68.1z"/>
	</g>
	<g>
		<path class="st3" d="M52.2,53c-0.2,0-0.3-0.2-0.3-0.3V21.1c0-0.2,0.2-0.3,0.3-0.3c0.2,0,0.3,0.1,0.3,0.3v31.6
			C52.5,52.9,52.4,53,52.2,53z"/>
	</g>
	<g>
		<path class="st3" d="M118,60.9c-0.1,0-2.7-0.7-2.7-0.7c-0.1-0.6,2.3-2.3,2.3-2.3c0.2-0.1,0.4-0.1,0.5,0.1c0.1,0.2,0.1,0.4-0.1,0.5
			l-1.8,1.2l1.9,0.5c0.2,0,0.3,0.2,0.2,0.4C118.2,60.8,118.1,60.9,118,60.9z"/>
	</g>
	<polygon class="st1" points="100.8,77.5 100.5,78.4 104.1,95.8 112.2,84.6 120.3,96.1 123.5,77.3 118.9,72.8 112.2,84.4 
		105.3,72.9 	"/>
	<g>
		<path class="st3" d="M120.3,96.6c-0.3-0.1-8.2-11.5-8.2-11.5l-7.9,11.3c-0.6-0.1-4.1-18.6-4.1-18.6c0.1-0.3,5-5.3,5-5.3
			c0.5,0.1,6.9,11.3,6.9,11.3l6.5-11.3c0.5-0.1,5.2,4.7,5.2,4.7c0.1,0.3-3.2,19.1-3.2,19.1C120.3,96.6,120.3,96.6,120.3,96.6z
			 M100.8,77.9l3.3,17.5l7.6-10.9l-6.4-11.1L100.8,77.9z M112.5,84.5l7.6,10.9l3.1-17.8l-4.2-4.3L112.5,84.5z"/>
	</g>
</g>
</svg>
